<?xml version="1.0" encoding="UTF-8" standalone="no"?>
<svg width="512px" height="512px" viewBox="0 0 512 512" version="1.1" xmlns="http://www.w3.org/2000/svg" xmlns:xlink="http://www.w3.org/1999/xlink" xmlns:sketch="http://www.bohemiancoding.com/sketch/ns">
    <!-- Generator: Sketch 3.5.2 (25235) - http://www.bohemiancoding.com/sketch -->
    <title>07 Instagram Copy</title>
    <desc>Created with Sketch.</desc>
    <defs></defs>
    <g id="Page-1" stroke="none" stroke-width="1" fill="none" fill-rule="evenodd" sketch:type="MSPage">
        <g id="Artboard-1" sketch:type="MSArtboardGroup" transform="translate(-449.000000, -2732.000000)" fill="#6E6C6C">
            <path d="M862.048295,2732 L547.958958,2732 C493.391177,2732 449,2776.37667 449,2830.9372 L449,3145.05555 C449,3199.61608 493.391177,3244 547.958958,3244 L862.048295,3244 C916.608823,3244 961,3199.61608 961,3145.05555 L961,2830.9372 C961,2776.37667 916.608823,2732 862.048295,2732 L862.048295,2732 Z M890.670241,2791.01737 L902.026178,2790.97382 L902.026178,2877.81843 L815.196937,2878.09424 L814.905759,2791.25689 L890.670241,2791.01737 L890.670241,2791.01737 Z M632.318177,2935.91531 C648.760205,2913.12819 675.469399,2898.19895 705.659235,2898.19895 C735.84907,2898.19895 762.558264,2913.12819 778.99301,2935.91531 C789.740767,2950.79358 796.141361,2968.97084 796.141361,2988.67744 C796.141361,3038.56295 755.538727,3079.14136 705.659235,3079.14136 C655.779743,3079.14136 615.198953,3038.56295 615.198953,2988.67744 C615.198953,2968.97084 621.606829,2950.79358 632.318177,2935.91531 L632.318177,2935.91531 Z M910.068063,3145.35626 C910.068063,3172.42125 888.122556,3194.40838 861.094322,3194.40838 L547.572604,3194.40838 C520.54437,3194.40838 498.591623,3172.42125 498.591623,3145.35626 L498.591623,2935.72775 L574.890452,2935.72775 C568.287251,2951.96964 564.587431,2969.69862 564.587431,2988.28359 C564.587431,3065.47429 627.274398,3128.30191 704.333463,3128.30191 C781.392529,3128.30191 844.072255,3065.47429 844.072255,2988.28359 C844.072255,2969.69862 840.350714,2951.96964 833.776475,2935.72775 L910.068063,2935.72775 L910.068063,3145.35626 L910.068063,3145.35626 Z" id="07-Instagram-Copy" sketch:type="MSShapeGroup"></path>
        </g>
    </g>
</svg>