<?xml version="1.0" encoding="UTF-8" standalone="no"?>
<svg width="316px" height="512px" viewBox="0 0 316 512" version="1.1" xmlns="http://www.w3.org/2000/svg" xmlns:xlink="http://www.w3.org/1999/xlink" xmlns:sketch="http://www.bohemiancoding.com/sketch/ns">
    <!-- Generator: Sketch 3.5.2 (25235) - http://www.bohemiancoding.com/sketch -->
    <title>12 Tumbler Copy</title>
    <desc>Created with Sketch.</desc>
    <defs></defs>
    <g id="Page-1" stroke="none" stroke-width="1" fill="none" fill-rule="evenodd" sketch:type="MSPage">
        <g id="Artboard-1" sketch:type="MSArtboardGroup" transform="translate(-803.000000, -4188.000000)" fill="#6E6C6C">
            <path d="M980.292219,4188 L980.292219,4317.41624 L1101.97489,4317.41624 L1101.97489,4397.77732 L980.292219,4397.77732 L980.292219,4529.06496 C980.292219,4558.77513 981.847222,4577.82272 985.000828,4586.21497 C988.125368,4594.68701 993.982064,4601.40371 1002.61451,4606.44487 C1013.92099,4613.23411 1026.87693,4616.59971 1041.51867,4616.59971 C1067.49595,4616.59971 1093.29157,4608.14943 1119,4591.3069 L1119,4672.10319 C1097.06282,4682.36684 1077.24016,4689.61304 1059.48114,4693.75477 C1041.69306,4697.94727 1022.49531,4700 1001.84428,4700 C978.373896,4700 957.642936,4697.03333 939.644132,4691.15803 C921.652594,4685.18843 906.247884,4676.81069 893.553532,4665.85796 C880.830114,4654.927 871.972406,4643.24893 867.082138,4630.93255 C862.162804,4618.63068 859.714036,4600.75816 859.714036,4577.33673 L859.714036,4397.77732 L803,4397.77732 L803,4325.33702 C823.200515,4318.78714 840.429084,4309.40116 854.801968,4297.22986 C869.138521,4285.03679 880.713852,4270.39206 889.375368,4253.25213 C898.065949,4236.19199 904.067973,4214.4026 907.33784,4188 L980.292219,4188" id="12-Tumbler-Copy" sketch:type="MSShapeGroup"></path>
        </g>
    </g>
</svg>