<?xml version="1.0" encoding="UTF-8" standalone="no"?>
<svg width="120px" height="120px" viewBox="0 0 120 120" version="1.1" xmlns="http://www.w3.org/2000/svg" xmlns:xlink="http://www.w3.org/1999/xlink" xmlns:sketch="http://www.bohemiancoding.com/sketch/ns">
    <!-- Generator: Sketch 3.5.2 (25235) - http://www.bohemiancoding.com/sketch -->
    <title>Shape</title>
    <desc>Created with Sketch.</desc>
    <defs></defs>
    <g id="Page-1" stroke="none" stroke-width="1" fill="none" fill-rule="evenodd" sketch:type="MSPage">
        <g id="Artboard-1" sketch:type="MSArtboardGroup" transform="translate(-8266.000000, -2982.000000)" fill="#6E6C6C">
            <g id="iconmonstr-globe-3" sketch:type="MSLayerGroup" transform="translate(8314.000000, 3030.000000)">
                <path d="M12,-48 C-21.135,-48 -48,-21.135 -48,12 C-48,45.135 -21.135,72 12,72 C45.135,72 72,45.135 72,12 C72,-21.135 45.135,-48 12,-48 L12,-48 Z M17,32.285 L17,17 L31.97,17 C31.675,22.715 30.91,28.2 29.69,33.395 C25.575,32.795 21.32,32.455 17,32.285 L17,32.285 Z M26.785,43.095 C24.29,49.745 20.99,55.58 17,60.375 L17,42.275 C20.33,42.415 23.595,42.68 26.785,43.095 L26.785,43.095 Z M17,7 L17,-8.075 C21.34,-8.245 25.605,-8.59 29.74,-9.195 C30.93,-4.06 31.685,1.36 31.97,7 L17,7 L17,7 Z M17,-18.07 L17,-36.375 C21.03,-31.53 24.355,-25.625 26.855,-18.895 C23.645,-18.475 20.355,-18.21 17,-18.07 L17,-18.07 Z M30.515,-34.405 C36.7,-31.925 42.285,-28.265 46.965,-23.675 C43.755,-22.505 40.41,-21.465 36.87,-20.64 C35.15,-25.6 32.995,-30.19 30.515,-34.405 L30.515,-34.405 Z M-5.69,33.395 C-6.91,28.2 -7.68,22.715 -7.97,17 L7,17 L7,32.285 C2.675,32.455 -1.57,32.795 -5.69,33.395 L-5.69,33.395 Z M7,42.275 L7,60.375 C3.01,55.58 -0.29,49.745 -2.785,43.095 C0.405,42.68 3.67,42.415 7,42.275 L7,42.275 Z M-7.97,7 C-7.685,1.36 -6.935,-4.06 -5.74,-9.195 C-1.605,-8.59 2.66,-8.245 7,-8.075 L7,7 L-7.97,7 L-7.97,7 Z M-2.85,-18.895 C-0.35,-25.625 2.975,-31.53 7,-36.375 L7,-18.07 C3.645,-18.21 0.355,-18.475 -2.85,-18.895 L-2.85,-18.895 Z M-12.875,-20.645 C-16.415,-21.47 -19.76,-22.51 -22.965,-23.68 C-18.28,-28.27 -12.7,-31.93 -6.515,-34.41 C-8.995,-30.19 -11.15,-25.6 -12.875,-20.645 L-12.875,-20.645 Z M-15.62,-11.055 C-16.94,-5.3 -17.79,0.745 -18.08,7 L-37.745,7 C-36.92,-1.29 -34.05,-8.985 -29.66,-15.59 C-25.26,-13.785 -20.58,-12.24 -15.62,-11.055 L-15.62,-11.055 Z M-15.575,35.255 C-20.515,36.435 -25.175,37.965 -29.56,39.755 C-34.01,33.115 -36.915,25.36 -37.745,17 L-18.075,17 C-17.785,23.325 -16.92,29.44 -15.575,35.255 L-15.575,35.255 Z M-12.81,44.84 C-11.1,49.72 -8.97,54.245 -6.525,58.4 C-12.64,55.95 -18.155,52.345 -22.805,47.825 C-19.625,46.68 -16.31,45.65 -12.81,44.84 L-12.81,44.84 Z M36.81,44.84 C40.31,45.655 43.62,46.675 46.805,47.825 C42.15,52.34 36.635,55.95 30.52,58.405 C32.965,54.245 35.095,49.72 36.81,44.84 L36.81,44.84 Z M39.575,35.255 C40.925,29.44 41.785,23.325 42.08,17 L61.75,17 C60.915,25.36 58.01,33.115 53.56,39.755 C49.175,37.965 44.51,36.435 39.575,35.255 L39.575,35.255 Z M42.08,7 C41.79,0.745 40.935,-5.3 39.62,-11.055 C44.58,-12.24 49.265,-13.785 53.665,-15.59 C58.05,-8.985 60.92,-1.29 61.745,7 L42.08,7 L42.08,7 Z" id="Shape" sketch:type="MSShapeGroup"></path>
            </g>
        </g>
    </g>
</svg>